<?xml version="1.0" encoding="UTF-8"?>
<svg width="366px" height="589px" viewBox="0 0 366 589" version="1.1" xmlns="http://www.w3.org/2000/svg" xmlns:xlink="http://www.w3.org/1999/xlink">
    <!-- Generator: Sketch 49.3 (51167) - http://www.bohemiancoding.com/sketch -->
    <title>Combined Shape</title>
    <desc>Created with Sketch.</desc>
    <defs></defs>
    <g id="Page-1" stroke="none" stroke-width="1" fill="none" fill-rule="evenodd">
        <g id="Screen" transform="translate(-1074.000000, -311.000000)" fill="#C8FFCB">
            <path d="M1407.5,978 C1223.31304,978 1074,828.686964 1074,644.5 C1074,460.313036 1223.31304,311 1407.5,311 C1591.68696,311 1741,460.313036 1741,644.5 C1741,828.686964 1591.68696,978 1407.5,978 Z M1629.26445,560.450698 C1622.76875,488.911635 1572.16392,437.008563 1508.83299,437.008563 C1466.64089,437.008563 1428.00903,459.727397 1406.27111,496.139187 C1384.73004,459.256407 1347.68144,437 1306.16545,437 C1242.84308,437 1192.22968,488.903072 1185.74254,560.442135 C1185.22905,563.602048 1183.12372,580.232268 1189.52528,607.352715 C1198.75106,646.470555 1220.06106,682.051691 1251.13601,710.225442 L1406.16841,851 L1563.86243,710.234006 C1594.93738,682.051691 1616.24738,646.479119 1625.47316,607.352715 C1631.87471,580.240832 1629.76939,563.610611 1629.26445,560.450698 Z" id="Combined-Shape"></path>
        </g>
    </g>
</svg>